<?xml version="1.0" encoding="UTF-8"?>
<svg version="1.1" viewBox="0 0 2048 2048" width="512" height="512" xmlns="http://www.w3.org/2000/svg">
<path transform="translate(977)" d="m0 0h102l4 2 43 7 31 7 35 11 24 9 23 10 19 9 22 12 21 13 12 8 18 13 14 11 13 11 11 9 35 35 9 11 12 14 10 13 12 17 10 15 12 20 7 12 8 16 12 26 11 28 10 31 8 32 6 33 4 35 1 16v25h260l29 2 24 4 28 8 20 8 20 10 19 12 16 12 14 12 18 18 9 11 11 15 10 16 12 23 10 25 8 30 2 10h2v942l-2 2-6 36-7 30-12 36-10 24-9 19-13 23-6 10-8 12-12 17-13 16-9 11-6 7h-2l-2 4-17 17-8 7-15 13-13 10-20 14-21 13-24 13-23 11-26 10-25 8-28 7-50 9h-1281l-3-2-35-6-30-7-36-12-20-8-29-14-23-13-24-16-16-12-11-9-15-13-7-7-8-7-12-13-9-10-9-11-14-18-16-24-11-19-12-23-10-23-7-18-9-29-7-30-5-31v-6h-2v-933l7-30 6-20 6-16 11-23 11-18 7-10 10-13 4-5h2l2-4 20-20 11-9 16-12 20-12 16-8 19-8 19-6 23-5 22-3 20-1h259l1-32 3-32 5-32 9-39 12-38 12-30 9-20 10-19 13-23 11-17 14-20 10-13 11-14 10-11 7-8 15-16 15-14 10-9 11-9 16-13 20-14 23-15 28-16 29-14 27-11 36-12 26-7 34-7zm27 171-29 3-23 4-24 6-24 8-21 9-16 8-17 9-24 16-16 12-10 9-8 7-23 23-11 14-10 12-10 15-11 18-14 27-11 28-8 26-6 26-4 32-1 16v12l677 1 5-1-1-24-4-33-5-24-8-28-11-28-10-21-12-21-10-15-12-16-8-10-2-3h-2l-2-4-8-8-7-8-14-13-11-9-20-15-19-12-16-9-22-11-26-10-27-8-29-6-24-3-13-1zm-269 511-52 1-1 180-4 18-8 17-9 12-9 9-14 9-14 6-17 4h-20l-14-3-15-6-11-7-10-9-9-10-7-11-5-12-3-14-1-12-1-171h-261l-15 2-12 4-15 8-14 12-10 13-8 16-4 15-1 10v868l2 24 4 23 7 25 10 25 10 20 13 20 10 13 12 14 15 15 22 18 15 10 18 10 23 11 23 8 28 6 22 3 13 1 140 1h870l198-1 27-2 23-4 23-6 21-8 18-8 22-13 14-10 14-11 7-7 8-7 13-14 11-14 9-13 13-22 10-22 9-27 5-23 2-12 1-11 1-32v-811l-1-44-3-14-5-12-6-11-11-13-10-8-14-8-15-5-11-2h-264l-1 24-1 157-3 14-5 13-7 12-10 12-12 9-16 8-12 4-10 2h-20l-17-4-17-8-13-10-8-8-7-10-7-14-4-13-1-7-1-48v-133z"/>
</svg>
