<?xml version="1.0" encoding="UTF-8"?>
<svg version="1.1" viewBox="0 0 1080 1080" width="1080" height="1080" xmlns="http://www.w3.org/2000/svg">
<path transform="translate(361,336)" d="m0 0h87l3 3v184h4l5-12 7-11 9-10 12-10 16-8 8-3 21-4h27l25 5 11 4 12 7 11 9 9 11 6 11 5 12 4 17 2 18 1 177 2 25 4 10 5 6 9 4 15 2 14 1 2 1v4h-88l-1-1-1-236-2-20-5-17-4-9-3-6-6-8-9-8-14-7-15-3h-24l-18 4-9 4-12 7-10 10-4 5-6 11-6 13-3 7-4 19-1 11v186l2 13 4 8 1 3 12 6 16 2 17 1 1 4-1 1h-148l1-5 19-1 16-2 10-5 6-8 3-9 1-10v-372l-1-12-5-12-8-7-10-3-7-1-21-1z" fill="#050505"/>
<path transform="translate(44,853)" d="m0 0h992l6 5 1 10-2 5-6 4h-2v2h-985v-2l-6-2-3-3-1-8 2-7z" fill="#020202"/>
<path transform="translate(188,357)" d="m0 0h17l26 3 18 5 17 7 5 3 13 10 5 5 7 9 4 8 3 8v18l-5 10-8 7-5 3-12 1-2-2-2-26-4-18-5-12-6-10-10-10-9-5-5-3-11-3-10-1h-24l-14 2-11 4-6 3-10 7-3 3h-2l-2 4-6 8-7 14-3 8-3 14-1 9v22l3 16 2 8 4 9 6 10 11 12 10 8 7 4v2l6 2 9 6 11 6 19 10 15 8 28 16 11 7 13 9 13 12 10 11 7 10 5 10 4 11 3 15v37l-4 19-5 12-6 12-9 12-14 14-12 8-7 4-14 5-9 3-12 3-25 2h-13l-28-2-11-3-9-2-11-4-19-10-5-4-2-1v-2l-4-2-8-8-7-10-5-13-3-10v-20l5-13 7-6 5-3 4-1h8l1 2 1 21 3 19 5 15 4 9 7 12 10 11 9 7 6 3 12 5 14 3h39l16-4 16-8 11-9 10-12 8-16 2-8 2-7 2-18v-18l-3-20-4-11-7-12-12-13-12-10-15-10-15-9-11-6-15-8-6-3-13-7-14-8-7-5-9-5-12-9-12-11-10-11-5-9-6-10-5-17-3-16v-31l2-11 3-12 4-10 7-12 11-13 10-9 10-7 8-4 12-5 14-4z" fill="#030303"/>
<path transform="translate(865,465)" d="m0 0h33l25 5 16 6 11 6 9 6 12 11 7 7 8 11 8 16 4 9 4 14 3 10 4 24 1 18v43l-1 17-4 25-5 17-4 12-8 16-6 10-7 9-12 12-13 9-13 7-11 4-16 4-25 2-25-1-13-2-14-4-9-4-12-6-12-9-12-11-10-12-11-20-4-9-3-9-5-21-3-18-1-16v-48l1-16 4-23 5-18 3-9 8-16 7-12 12-14 11-10 9-5 2-2 7-3 12-5 15-4zm7 5-15 2-13 4-9 5-6 4-4 3v2l-4 2-9 11-5 8-3 7-4 10-3 11-2 10-3 13-3 27-1 15v50l2 24 3 24 2 7 2 11 7 21 8 15 9 11 8 8 11 7 10 4 13 3h35l15-4 9-4 7-5 5-3 9-9 7-10 7-14 3-9 5-19 3-15 3-26 1-18v-48l-1-19-4-31-3-15-5-15-3-8-6-12-8-11-6-5-5-5-8-5-9-4-9-3-14-2z" fill="#040404"/>
<path transform="translate(553,346)" d="m0 0h335l8 3 4 5v11l-5 6-10 1h-330l-10-2-3-5-1-8 3-7 5-3z" fill="#070707"/>
<path transform="translate(260,203)" d="m0 0h12l3 5 2 3 1 8-3 6-5 4-10 5-10 6-19 11-9 5-11 7-11 6-14 8-9 5-7 4-11 7-11 6-8 5-11 6-12 7-10 6-11 6-8 5-11 6-8 5-11 6-7 3-7-1-5-5-2-5h-2v-7l7-6 11-7 22-12 11-7 11-6 12-7 11-6 52-30 24-14 11-6 12-7 11-6 7-4 11-7 11-6z" fill="#040404"/>
<path transform="translate(814,206)" d="m0 0 10 2 24 14 52 30 22 13 18 10 67 39 12 7 14 8 9 6 4 4v7l-2 1-3 5-4 4h-9l-15-9-18-10-9-6-10-5-9-6-12-6-13-8-11-6-9-6-6-3-16-9-14-8-9-6-6-3-11-6-9-6-6-3-12-7-11-6-7-4-10-7-2-4 1-10 5-5z" fill="#040404"/>
<path transform="translate(188,357)" d="m0 0h17l26 3 18 5 17 7 5 3 13 10 5 5 7 9 4 8 3 8v18l-5 10-8 7-5 3-12 1-2-2-2-26-4-18-5-12-6-10-10-10-9-5-5-3-11-3-27-2-6-2h-15l1-2z" fill="#050505"/>
<path transform="translate(44,875)" d="m0 0h993l-4 2v2h-985v-2z" fill="#404040"/>
<path transform="translate(361,336)" d="m0 0h87l3 3v184h5l-1 4-3 6-4-2v-192l-69-1-19 1z" fill="#404040"/>
<path transform="translate(188,357)" d="m0 0h17l19 2 4 2h-21l-4 2h-11l-6-2h-15l1-2z" fill="#404040"/>
<path transform="translate(870,468)" d="m0 0h22l2 1v2h-26v-2z" fill="#404040"/>
<path transform="translate(1042,336)" d="m0 0 4 3v7l-4 3 1-9z" fill="#404040"/>
</svg>
